STARTFONT 2.1
COMMENT
COMMENT Converted from OpenType font "awesome_icons.ttf" by "otf2bdf 3.0".
COMMENT
FONT -FreeType-awesome_icons-Medium-R-Normal--28-200-100-100-P-60-ISO10646-1
SIZE 20 100 100
FONTBOUNDINGBOX 35 35 -4 -6
STARTPROPERTIES 19
FOUNDRY "FreeType"
FAMILY_NAME "awesome_icons"
WEIGHT_NAME "Medium"
SLANT "R"
SETWIDTH_NAME "Normal"
ADD_STYLE_NAME ""
PIXEL_SIZE 28
POINT_SIZE 200
RESOLUTION_X 100
RESOLUTION_Y 100
SPACING "P"
AVERAGE_WIDTH 60
CHARSET_REGISTRY "ISO10646"
CHARSET_ENCODING "1"
FONT_ASCENT 23
FONT_DESCENT 5
COPYRIGHT "Typeface © (your company). 2021. All Rights Reserved"
_OTF_FONTFILE "awesome_icons.ttf"
_OTF_PSNAME "awesome_icons"
ENDPROPERTIES
CHARS 241
STARTCHAR 0000
ENCODING 0
SWIDTH 0 0
DWIDTH 0 0
BBX 0 0 0 0
BITMAP
ENDCHAR
STARTCHAR 001D
ENCODING 29
SWIDTH 0 0
DWIDTH 0 0
BBX 0 0 0 0
BITMAP
ENDCHAR
STARTCHAR 0020
ENCODING 32
SWIDTH 252 0
DWIDTH 7 0
BBX 0 0 0 0
BITMAP
ENDCHAR
STARTCHAR 0021
ENCODING 33
SWIDTH 324 0
DWIDTH 9 0
BBX 5 19 2 0
BITMAP
70
70
70
70
70
70
70
70
70
70
70
70
00
00
70
F8
F8
F8
70
ENDCHAR
STARTCHAR 0022
ENCODING 34
SWIDTH 540 0
DWIDTH 15 0
BBX 11 9 2 10
BITMAP
F1E0
F1E0
F1E0
F1E0
F1E0
F1E0
F1E0
60C0
60C0
ENDCHAR
STARTCHAR 0023
ENCODING 35
SWIDTH 540 0
DWIDTH 15 0
BBX 13 19 1 0
BITMAP
0C60
0C60
1C60
1C60
1CE0
7FF8
7FF8
7FF8
18C0
18C0
38C0
FFF0
FFF0
FFF0
31C0
31C0
3180
3180
3180
ENDCHAR
STARTCHAR 0024
ENCODING 36
SWIDTH 540 0
DWIDTH 15 0
BBX 11 24 2 -3
BITMAP
0E00
0E00
0E00
3F80
7FC0
7FC0
F0C0
F000
F000
F800
7E00
3F80
1FC0
07E0
03E0
01E0
01E0
E3E0
FFC0
FFC0
3F00
0E00
0E00
0E00
ENDCHAR
STARTCHAR 0025
ENCODING 37
SWIDTH 864 0
DWIDTH 24 0
BBX 22 19 1 0
BITMAP
3E0380
7F0300
770700
E38600
E38E00
E38C00
E39C00
E398E0
F73BF8
7F33B8
3E771C
00671C
00E71C
00C71C
01C71C
01871C
0383B8
0303F8
0700F0
ENDCHAR
STARTCHAR 0026
ENCODING 38
SWIDTH 828 0
DWIDTH 23 0
BBX 20 20 2 0
BITMAP
0F4000
18C000
104000
302000
100000
180000
180000
240000
4607E0
830180
810100
808100
80C200
806200
C03200
C01400
601800
701C10
3C7760
0FC3E0
ENDCHAR
STARTCHAR 0027
ENCODING 39
SWIDTH 180 0
DWIDTH 5 0
BBX 2 6 1 16
BITMAP
C0
C0
C0
C0
40
80
ENDCHAR
STARTCHAR 0028
ENCODING 40
SWIDTH 360 0
DWIDTH 10 0
BBX 6 27 3 -5
BITMAP
04
08
10
10
20
20
60
60
40
C0
C0
C0
C0
C0
C0
C0
C0
C0
40
60
60
20
30
10
18
08
04
ENDCHAR
STARTCHAR 0029
ENCODING 41
SWIDTH 396 0
DWIDTH 11 0
BBX 6 27 1 -5
BITMAP
C0
40
20
30
10
18
18
08
0C
0C
0C
0C
0C
0C
0C
0C
0C
0C
0C
08
18
18
10
30
20
40
80
ENDCHAR
STARTCHAR 002A
ENCODING 42
SWIDTH 504 0
DWIDTH 14 0
BBX 8 8 3 14
BITMAP
18
18
CB
EB
1C
34
76
36
ENDCHAR
STARTCHAR 002B
ENCODING 43
SWIDTH 504 0
DWIDTH 14 0
BBX 11 12 1 4
BITMAP
0600
0600
0600
0600
0600
FFE0
FFE0
0600
0600
0600
0600
0600
ENDCHAR
STARTCHAR 002C
ENCODING 44
SWIDTH 252 0
DWIDTH 7 0
BBX 3 8 2 -4
BITMAP
C0
C0
E0
60
40
40
40
80
ENDCHAR
STARTCHAR 002D
ENCODING 45
SWIDTH 360 0
DWIDTH 10 0
BBX 6 2 2 6
BITMAP
FC
FC
ENDCHAR
STARTCHAR 002E
ENCODING 46
SWIDTH 288 0
DWIDTH 8 0
BBX 3 4 2 0
BITMAP
40
E0
E0
40
ENDCHAR
STARTCHAR 002F
ENCODING 47
SWIDTH 288 0
DWIDTH 8 0
BBX 9 21 0 -1
BITMAP
0180
0100
0100
0300
0200
0200
0400
0400
0400
0800
0800
0800
1000
1000
3000
2000
2000
6000
4000
4000
8000
ENDCHAR
STARTCHAR 0030
ENCODING 48
SWIDTH 540 0
DWIDTH 15 0
BBX 13 19 1 0
BITMAP
0F80
3FC0
3FE0
79F0
78F0
F070
F078
F078
F078
F078
F078
F078
F078
F070
78F0
79F0
3FE0
1FC0
0F80
ENDCHAR
STARTCHAR 0031
ENCODING 49
SWIDTH 540 0
DWIDTH 15 0
BBX 11 18 2 0
BITMAP
0F00
3F00
7F00
7F00
7F00
0F00
0F00
0F00
0F00
0F00
0F00
0F00
0F00
0F00
0F00
FFE0
FFE0
FFE0
ENDCHAR
STARTCHAR 0032
ENCODING 50
SWIDTH 540 0
DWIDTH 15 0
BBX 12 18 1 0
BITMAP
3F80
7FC0
FFE0
71F0
00F0
00F0
00F0
00F0
01E0
03E0
07C0
0F80
1F00
3E00
7C70
FFF0
FFF0
FFF0
ENDCHAR
STARTCHAR 0033
ENCODING 51
SWIDTH 540 0
DWIDTH 15 0
BBX 13 19 0 0
BITMAP
1F80
3FE0
7FE0
39F0
20F0
00F0
00F0
01E0
0FE0
0FC0
0FF0
00F0
0078
0078
2078
79F8
FFF0
7FE0
1F80
ENDCHAR
STARTCHAR 0034
ENCODING 52
SWIDTH 540 0
DWIDTH 15 0
BBX 13 18 1 0
BITMAP
03F0
03F0
07F0
07F0
0FF0
1EF0
1EF0
3CF0
38F0
78F0
F0F0
FFF8
FFF8
FFF8
00F0
00F0
00F0
00F0
ENDCHAR
STARTCHAR 0035
ENCODING 53
SWIDTH 540 0
DWIDTH 15 0
BBX 13 19 0 0
BITMAP
3FF0
3FF0
3FF0
3FF0
3C00
3C00
3C00
3BC0
3FE0
3FF0
10F8
0078
0078
0078
2078
79F0
FFF0
3FE0
1F80
ENDCHAR
STARTCHAR 0036
ENCODING 54
SWIDTH 540 0
DWIDTH 15 0
BBX 13 18 1 0
BITMAP
0FE0
1FF0
3FF0
7C60
7800
F000
F3C0
FFE0
FFF0
F8F0
F078
F078
F078
7878
78F0
3FF0
1FE0
0F80
ENDCHAR
STARTCHAR 0037
ENCODING 55
SWIDTH 540 0
DWIDTH 15 0
BBX 12 18 1 0
BITMAP
FFF0
FFF0
FFF0
FFE0
01E0
03C0
0380
0780
0780
0F00
0F00
0F00
0E00
1E00
1E00
1E00
1E00
1E00
ENDCHAR
STARTCHAR 0038
ENCODING 56
SWIDTH 540 0
DWIDTH 15 0
BBX 12 19 1 0
BITMAP
0F00
3FC0
7FE0
79E0
F0E0
F0E0
78E0
7DE0
3FC0
1F80
3FE0
73E0
F0F0
F0F0
F0F0
F0F0
7FE0
3FC0
1F80
ENDCHAR
STARTCHAR 0039
ENCODING 57
SWIDTH 540 0
DWIDTH 15 0
BBX 13 19 1 0
BITMAP
1F00
3FC0
7FE0
79F0
F0F0
F070
F078
F078
F8F8
7FF8
7FF8
1E78
0070
00F0
20F0
7BE0
7FE0
7FC0
1F00
ENDCHAR
STARTCHAR 003A
ENCODING 58
SWIDTH 324 0
DWIDTH 9 0
BBX 5 14 2 0
BITMAP
70
F8
F8
F8
70
00
00
00
00
70
F8
F8
F8
70
ENDCHAR
STARTCHAR 003B
ENCODING 59
SWIDTH 288 0
DWIDTH 8 0
BBX 6 19 1 -5
BITMAP
30
78
7C
7C
78
00
00
00
00
38
7C
7C
7C
3C
1C
1C
38
F0
60
ENDCHAR
STARTCHAR 003C
ENCODING 60
SWIDTH 504 0
DWIDTH 14 0
BBX 12 14 1 3
BITMAP
0030
0070
01E0
0780
0E00
3C00
F000
F000
7800
1E00
0780
01E0
00F0
0030
ENDCHAR
STARTCHAR 003D
ENCODING 61
SWIDTH 504 0
DWIDTH 14 0
BBX 11 6 1 7
BITMAP
FFE0
FFE0
0000
0000
FFE0
FFE0
ENDCHAR
STARTCHAR 003E
ENCODING 62
SWIDTH 504 0
DWIDTH 14 0
BBX 12 14 1 3
BITMAP
8000
E000
7800
3C00
0F00
03C0
01E0
00F0
03C0
0F00
1E00
7800
E000
8000
ENDCHAR
STARTCHAR 003F
ENCODING 63
SWIDTH 360 0
DWIDTH 10 0
BBX 7 20 1 0
BITMAP
3C
CE
06
06
06
06
0C
0C
18
10
30
20
20
20
20
00
10
38
38
10
ENDCHAR
STARTCHAR 0040
ENCODING 64
SWIDTH 972 0
DWIDTH 27 0
BBX 24 26 1 -6
BITMAP
007F00
0181C0
060070
0C0018
18001C
30000C
307C06
60C606
608307
E00307
C00703
C03B07
C0C307
C08307
C18307
C18306
E1830E
60C30C
60E718
303CE0
380000
180000
0C0000
070030
01C0C0
007F00
ENDCHAR
STARTCHAR 0041
ENCODING 65
SWIDTH 1008 0
DWIDTH 28 0
BBX 17 17 0 2
BITMAP
800080
C00180
A00380
D00580
E80F80
A41680
FA3F80
BD7D80
EEBF80
5FFF00
3FFE00
177C00
09F800
077000
03E000
01C000
008000
ENDCHAR
STARTCHAR 0042
ENCODING 66
SWIDTH 1008 0
DWIDTH 28 0
BBX 17 17 0 2
BITMAP
008000
01C000
03E000
077000
09F800
177C00
3FFE00
7FFF00
EEBF80
BD7F80
FA3F80
A41680
F80F80
D00580
A00380
C00180
800080
ENDCHAR
STARTCHAR 0043
ENCODING 67
SWIDTH 1116 0
DWIDTH 31 0
BBX 31 25 0 -2
BITMAP
000383C0
0007C3C0
000FE3C0
003FF3C0
007EFFC0
00FC7FC0
01F01FC0
03E38FC0
07C7C7C0
1F8FE3E0
3F3FF1F8
7E7FF8FC
F8FFFE3E
F1FFFF1E
63FFFF8C
07FFFFC0
07FFFFC0
07FFFFC0
07F83FC0
07F83FC0
07F83FC0
07F83FC0
07F83FC0
07F83FC0
07F83FC0
ENDCHAR
STARTCHAR 0044
ENCODING 68
SWIDTH 1008 0
DWIDTH 28 0
BBX 12 25 0 -3
BITMAP
0F00
1080
1C80
1C80
1C80
1C80
1080
1C80
1080
1680
1680
1680
1680
1680
1680
2640
4F20
5FB0
DF90
DF90
5FA0
4F20
2040
1980
0600
ENDCHAR
STARTCHAR 0045
ENCODING 69
SWIDTH 540 0
DWIDTH 15 0
BBX 12 19 2 0
BITMAP
FFF0
FFF0
FFF0
FFF0
F000
F000
F000
F000
FFE0
FFE0
FFE0
F000
F000
F000
F000
FFF0
FFF0
FFF0
FFF0
ENDCHAR
STARTCHAR 0046
ENCODING 70
SWIDTH 1044 0
DWIDTH 29 0
BBX 24 13 1 4
BITMAP
01FF00
07FFC0
0F00F0
1C0000
380034
30004C
600046
600086
E00307
C00603
C00C03
C01803
001800
ENDCHAR
STARTCHAR 0047
ENCODING 71
SWIDTH 972 0
DWIDTH 27 0
BBX 24 15 0 2
BITMAP
000100
0006C0
000446
00004B
0000C1
FFFF83
00003E
7FFFC0
000030
3FFC90
0005F0
000D10
000110
0001B0
0000C0
ENDCHAR
STARTCHAR 0048
ENCODING 72
SWIDTH 540 0
DWIDTH 15 0
BBX 15 33 0 -4
BITMAP
0100
0FC0
0FE0
1C60
1860
1860
1860
1860
1860
1860
1860
1960
1960
1960
1960
1960
1960
1960
1960
1970
3978
713C
679C
EFCE
EFEE
EFE6
EFEE
EFCE
779C
783C
3FF8
1FF0
07C0
ENDCHAR
STARTCHAR 0049
ENCODING 73
SWIDTH 360 0
DWIDTH 10 0
BBX 8 8 1 11
BITMAP
3C
7E
E7
C3
C3
E7
7E
3C
ENDCHAR
STARTCHAR 004A
ENCODING 74
SWIDTH 756 0
DWIDTH 21 0
BBX 22 28 0 -4
BITMAP
002000
007000
00F800
01FC00
03FE00
03FF00
07FF80
0FFFC0
1FFCC0
18F9E0
3079E0
2673F0
6673F0
6667F8
E267F8
F04FF8
F8CC3C
FF981C
FF999C
FF3998
FF3998
7F7918
7E7830
3E7C70
1FFFE0
0FFFC0
07FF00
01FC00
ENDCHAR
STARTCHAR 004B
ENCODING 75
SWIDTH 1008 0
DWIDTH 28 0
BBX 17 25 0 -3
BITMAP
008000
018000
01C000
03C000
03E000
07F000
07F000
0FF800
0FF800
1FFC00
1FFC00
3FFE00
3FFE00
7FFF00
7FFF00
FFFF00
FFFF80
DFFF80
DFFF80
6FFF00
60FF00
307E00
1C7C00
0FF800
01E000
ENDCHAR
STARTCHAR 004C
ENCODING 76
SWIDTH 540 0
DWIDTH 15 0
BBX 0 0 0 0
BITMAP
ENDCHAR
STARTCHAR 004D
ENCODING 77
SWIDTH 864 0
DWIDTH 24 0
BBX 0 0 0 0
BITMAP
ENDCHAR
STARTCHAR 004E
ENCODING 78
SWIDTH 648 0
DWIDTH 18 0
BBX 14 18 2 0
BITMAP
F83C
F83C
FC3C
FC3C
FE3C
EE3C
FF3C
F73C
F7BC
F3BC
F3FC
F1FC
F1DC
F0FC
F0FC
F07C
F07C
F03C
ENDCHAR
STARTCHAR 004F
ENCODING 79
SWIDTH 792 0
DWIDTH 22 0
BBX 0 0 0 0
BITMAP
ENDCHAR
STARTCHAR 0050
ENCODING 80
SWIDTH 540 0
DWIDTH 15 0
BBX 0 0 0 0
BITMAP
ENDCHAR
STARTCHAR 0051
ENCODING 81
SWIDTH 792 0
DWIDTH 22 0
BBX 0 0 0 0
BITMAP
ENDCHAR
STARTCHAR 0052
ENCODING 82
SWIDTH 612 0
DWIDTH 17 0
BBX 0 0 0 0
BITMAP
ENDCHAR
STARTCHAR 0053
ENCODING 83
SWIDTH 576 0
DWIDTH 16 0
BBX 14 19 1 0
BITMAP
07C0
1FF0
3FF8
7FF8
7810
7800
7C00
7F00
3FE0
1FF0
07F8
01FC
007C
003C
303C
7FFC
FFF8
3FF0
0FC0
ENDCHAR
STARTCHAR 0054
ENCODING 84
SWIDTH 648 0
DWIDTH 18 0
BBX 0 0 0 0
BITMAP
ENDCHAR
STARTCHAR 0055
ENCODING 85
SWIDTH 720 0
DWIDTH 20 0
BBX 0 0 0 0
BITMAP
ENDCHAR
STARTCHAR 0056
ENCODING 86
SWIDTH 720 0
DWIDTH 20 0
BBX 0 0 0 0
BITMAP
ENDCHAR
STARTCHAR 0057
ENCODING 87
SWIDTH 828 0
DWIDTH 23 0
BBX 21 18 1 0
BITMAP
F0F078
F0F878
F0F878
F0F878
F0F870
F1F8F0
79DCF0
79DCF0
79DCF0
7BDCF0
7B9EE0
3B9EE0
3B8FE0
3B8FE0
3F8FE0
3F0FC0
3F07C0
1F07C0
ENDCHAR
STARTCHAR 0058
ENCODING 88
SWIDTH 648 0
DWIDTH 18 0
BBX 0 0 0 0
BITMAP
ENDCHAR
STARTCHAR 0059
ENCODING 89
SWIDTH 612 0
DWIDTH 17 0
BBX 0 0 0 0
BITMAP
ENDCHAR
STARTCHAR 005A
ENCODING 90
SWIDTH 540 0
DWIDTH 15 0
BBX 0 0 0 0
BITMAP
ENDCHAR
STARTCHAR 005B
ENCODING 91
SWIDTH 360 0
DWIDTH 10 0
BBX 0 0 0 0
BITMAP
ENDCHAR
STARTCHAR 005C
ENCODING 92
SWIDTH 288 0
DWIDTH 8 0
BBX 0 0 0 0
BITMAP
ENDCHAR
STARTCHAR 005D
ENCODING 93
SWIDTH 360 0
DWIDTH 10 0
BBX 0 0 0 0
BITMAP
ENDCHAR
STARTCHAR 005E
ENCODING 94
SWIDTH 504 0
DWIDTH 14 0
BBX 0 0 0 0
BITMAP
ENDCHAR
STARTCHAR 005F
ENCODING 95
SWIDTH 504 0
DWIDTH 14 0
BBX 14 1 0 -2
BITMAP
FFFC
ENDCHAR
STARTCHAR 0060
ENCODING 96
SWIDTH 504 0
DWIDTH 14 0
BBX 6 5 3 15
BITMAP
C0
E0
70
18
04
ENDCHAR
STARTCHAR 0061
ENCODING 97
SWIDTH 468 0
DWIDTH 13 0
BBX 0 0 0 0
BITMAP
ENDCHAR
STARTCHAR 0062
ENCODING 98
SWIDTH 504 0
DWIDTH 14 0
BBX 0 0 0 0
BITMAP
ENDCHAR
STARTCHAR 0063
ENCODING 99
SWIDTH 432 0
DWIDTH 12 0
BBX 0 0 0 0
BITMAP
ENDCHAR
STARTCHAR 0064
ENCODING 100
SWIDTH 1044 0
DWIDTH 29 0
BBX 24 24 1 -3
BITMAP
001800
001800
10180C
18181C
1C1838
0E0830
063C60
007F00
00FF80
01FF80
01FFC0
7BFFDF
FFFFDF
01FFC0
01FF80
01FF80
00FF00
023C60
060070
0C1838
18181C
30180C
001800
001800
ENDCHAR
STARTCHAR 0065
ENCODING 101
SWIDTH 1008 0
DWIDTH 28 0
BBX 24 24 0 -2
BITMAP
380000
7C03F0
C61FFE
C63FFF
C67FFF
7CFFFE
39F806
01F000
03E000
03E000
03C000
03C000
03C000
03C000
03C000
03E000
03E000
01F000
01F806
00FFFE
007FFF
003FFF
001FFE
0003F0
ENDCHAR
STARTCHAR 0066
ENCODING 102
SWIDTH 288 0
DWIDTH 8 0
BBX 0 0 0 0
BITMAP
ENDCHAR
STARTCHAR 0067
ENCODING 103
SWIDTH 432 0
DWIDTH 12 0
BBX 0 0 0 0
BITMAP
ENDCHAR
STARTCHAR 0068
ENCODING 104
SWIDTH 540 0
DWIDTH 15 0
BBX 0 0 0 0
BITMAP
ENDCHAR
STARTCHAR 0069
ENCODING 105
SWIDTH 252 0
DWIDTH 7 0
BBX 0 0 0 0
BITMAP
ENDCHAR
STARTCHAR 006A
ENCODING 106
SWIDTH 252 0
DWIDTH 7 0
BBX 0 0 0 0
BITMAP
ENDCHAR
STARTCHAR 006B
ENCODING 107
SWIDTH 504 0
DWIDTH 14 0
BBX 0 0 0 0
BITMAP
ENDCHAR
STARTCHAR 006C
ENCODING 108
SWIDTH 252 0
DWIDTH 7 0
BBX 0 0 0 0
BITMAP
ENDCHAR
STARTCHAR 006D
ENCODING 109
SWIDTH 756 0
DWIDTH 21 0
BBX 0 0 0 0
BITMAP
ENDCHAR
STARTCHAR 006E
ENCODING 110
SWIDTH 1008 0
DWIDTH 28 0
BBX 16 18 1 2
BITMAP
07C0
1F00
3F00
7E00
7E00
FC00
FC00
FC00
FE00
FE00
FF00
FF00
7FC0
7FFF
3FFF
1FFE
0FF8
01E0
ENDCHAR
STARTCHAR 006F
ENCODING 111
SWIDTH 504 0
DWIDTH 14 0
BBX 0 0 0 0
BITMAP
ENDCHAR
STARTCHAR 0070
ENCODING 112
SWIDTH 504 0
DWIDTH 14 0
BBX 0 0 0 0
BITMAP
ENDCHAR
STARTCHAR 0071
ENCODING 113
SWIDTH 504 0
DWIDTH 14 0
BBX 0 0 0 0
BITMAP
ENDCHAR
STARTCHAR 0072
ENCODING 114
SWIDTH 324 0
DWIDTH 9 0
BBX 0 0 0 0
BITMAP
ENDCHAR
STARTCHAR 0073
ENCODING 115
SWIDTH 360 0
DWIDTH 10 0
BBX 0 0 0 0
BITMAP
ENDCHAR
STARTCHAR 0074
ENCODING 116
SWIDTH 324 0
DWIDTH 9 0
BBX 0 0 0 0
BITMAP
ENDCHAR
STARTCHAR 0075
ENCODING 117
SWIDTH 504 0
DWIDTH 14 0
BBX 0 0 0 0
BITMAP
ENDCHAR
STARTCHAR 0076
ENCODING 118
SWIDTH 468 0
DWIDTH 13 0
BBX 0 0 0 0
BITMAP
ENDCHAR
STARTCHAR 0077
ENCODING 119
SWIDTH 684 0
DWIDTH 19 0
BBX 0 0 0 0
BITMAP
ENDCHAR
STARTCHAR 0078
ENCODING 120
SWIDTH 504 0
DWIDTH 14 0
BBX 0 0 0 0
BITMAP
ENDCHAR
STARTCHAR 0079
ENCODING 121
SWIDTH 432 0
DWIDTH 12 0
BBX 0 0 0 0
BITMAP
ENDCHAR
STARTCHAR 007A
ENCODING 122
SWIDTH 360 0
DWIDTH 10 0
BBX 0 0 0 0
BITMAP
ENDCHAR
STARTCHAR 007B
ENCODING 123
SWIDTH 504 0
DWIDTH 14 0
BBX 9 26 3 -4
BITMAP
0380
0400
0C00
0C00
0C00
0C00
0C00
0C00
0C00
0C00
0800
1800
E000
1800
0800
0C00
0C00
0C00
0C00
0C00
0C00
0C00
0C00
0C00
0400
0380
ENDCHAR
STARTCHAR 007C
ENCODING 124
SWIDTH 504 0
DWIDTH 14 0
BBX 2 28 6 -6
BITMAP
C0
C0
C0
C0
C0
C0
C0
C0
C0
C0
C0
C0
C0
C0
C0
C0
C0
C0
C0
C0
C0
C0
C0
C0
C0
C0
C0
C0
ENDCHAR
STARTCHAR 007D
ENCODING 125
SWIDTH 504 0
DWIDTH 14 0
BBX 8 26 2 -4
BITMAP
E0
30
18
18
18
18
18
18
18
18
18
0C
03
0C
18
18
18
18
18
18
18
18
18
18
30
E0
ENDCHAR
STARTCHAR 007E
ENCODING 126
SWIDTH 468 0
DWIDTH 13 0
BBX 11 3 1 8
BITMAP
7820
FFE0
83C0
ENDCHAR
STARTCHAR 00A0
ENCODING 160
SWIDTH 252 0
DWIDTH 7 0
BBX 0 0 0 0
BITMAP
ENDCHAR
STARTCHAR 00A1
ENCODING 161
SWIDTH 324 0
DWIDTH 9 0
BBX 0 0 0 0
BITMAP
ENDCHAR
STARTCHAR 00A2
ENCODING 162
SWIDTH 540 0
DWIDTH 15 0
BBX 0 0 0 0
BITMAP
ENDCHAR
STARTCHAR 00A3
ENCODING 163
SWIDTH 504 0
DWIDTH 14 0
BBX 11 20 1 0
BITMAP
0FC0
1860
3020
7000
6000
6000
6000
6000
6000
3000
FF80
3800
1800
1800
1800
1800
3000
3020
6060
FFE0
ENDCHAR
STARTCHAR 00A4
ENCODING 164
SWIDTH 504 0
DWIDTH 14 0
BBX 10 11 2 5
BITMAP
0080
DFC0
7380
6180
4080
4080
4080
6180
7300
FF80
C080
ENDCHAR
STARTCHAR 00A5
ENCODING 165
SWIDTH 648 0
DWIDTH 18 0
BBX 17 17 1 0
BITMAP
FC1F80
700600
300400
180800
1C1800
0C1000
FE3F00
074000
03C000
FFFF00
018000
018000
018000
018000
018000
018000
0FF000
ENDCHAR
STARTCHAR 00A6
ENCODING 166
SWIDTH 504 0
DWIDTH 14 0
BBX 2 28 6 -6
BITMAP
C0
C0
C0
C0
C0
C0
C0
C0
C0
C0
C0
00
00
00
00
00
00
C0
C0
C0
C0
C0
C0
C0
C0
C0
C0
C0
ENDCHAR
STARTCHAR 00A7
ENCODING 167
SWIDTH 468 0
DWIDTH 13 0
BBX 9 26 2 -6
BITMAP
3F00
4300
C100
C100
C000
E000
F800
7E00
3F00
3F80
6380
C180
C180
C180
E100
FB00
7C00
3F00
0F80
0380
0180
0180
0180
8100
C300
FC00
ENDCHAR
STARTCHAR 00A8
ENCODING 168
SWIDTH 504 0
DWIDTH 14 0
BBX 8 3 3 16
BITMAP
C6
E7
42
ENDCHAR
STARTCHAR 00A9
ENCODING 169
SWIDTH 792 0
DWIDTH 22 0
BBX 20 20 1 0
BITMAP
01F800
060600
180180
31F8C0
230C40
460420
4C0020
980010
980010
980010
980010
980010
9C0010
4C0020
460220
230640
31F8C0
180180
060600
01F800
ENDCHAR
STARTCHAR 00AB
ENCODING 171
SWIDTH 468 0
DWIDTH 13 0
BBX 10 9 2 2
BITMAP
0800
1080
3100
6200
C600
6200
1100
0880
0040
ENDCHAR
STARTCHAR 00AC
ENCODING 172
SWIDTH 468 0
DWIDTH 13 0
BBX 11 7 1 4
BITMAP
FFE0
0020
0020
0020
0020
0020
0020
ENDCHAR
STARTCHAR 00AD
ENCODING 173
SWIDTH 360 0
DWIDTH 10 0
BBX 6 2 2 6
BITMAP
FC
FC
ENDCHAR
STARTCHAR 00AE
ENCODING 174
SWIDTH 792 0
DWIDTH 22 0
BBX 20 21 1 0
BITMAP
01F800
060600
180100
100080
200040
43F020
419820
818C10
818C10
818C10
818C10
818810
81F010
819810
419820
418C20
23DF40
100080
080100
060600
01F800
ENDCHAR
STARTCHAR 00AF
ENCODING 175
SWIDTH 324 0
DWIDTH 9 0
BBX 0 0 0 0
BITMAP
ENDCHAR
STARTCHAR 00B0
ENCODING 176
SWIDTH 360 0
DWIDTH 10 0
BBX 8 8 1 12
BITMAP
3C
42
81
81
81
81
42
3C
ENDCHAR
STARTCHAR 00B1
ENCODING 177
SWIDTH 504 0
DWIDTH 14 0
BBX 0 0 0 0
BITMAP
ENDCHAR
STARTCHAR 00B2
ENCODING 178
SWIDTH 504 0
DWIDTH 14 0
BBX 0 0 0 0
BITMAP
ENDCHAR
STARTCHAR 00B3
ENCODING 179
SWIDTH 504 0
DWIDTH 14 0
BBX 0 0 0 0
BITMAP
ENDCHAR
STARTCHAR 00B4
ENCODING 180
SWIDTH 504 0
DWIDTH 14 0
BBX 6 5 5 15
BITMAP
0C
1C
38
60
80
ENDCHAR
STARTCHAR 00B5
ENCODING 181
SWIDTH 576 0
DWIDTH 16 0
BBX 0 0 0 0
BITMAP
ENDCHAR
STARTCHAR 00B6
ENCODING 182
SWIDTH 468 0
DWIDTH 13 0
BBX 11 20 1 0
BITMAP
1FE0
7C80
FC80
FC80
FC80
FC80
FC80
7C80
7C80
0C80
0480
0480
0480
0480
0480
0480
0480
0480
0480
0480
ENDCHAR
STARTCHAR 00B7
ENCODING 183
SWIDTH 252 0
DWIDTH 7 0
BBX 3 4 2 8
BITMAP
40
E0
E0
40
ENDCHAR
STARTCHAR 00B8
ENCODING 184
SWIDTH 468 0
DWIDTH 13 0
BBX 6 5 4 -6
BITMAP
20
38
0C
8C
F8
ENDCHAR
STARTCHAR 00B9
ENCODING 185
SWIDTH 504 0
DWIDTH 14 0
BBX 0 0 0 0
BITMAP
ENDCHAR
STARTCHAR 00BA
ENCODING 186
SWIDTH 360 0
DWIDTH 10 0
BBX 0 0 0 0
BITMAP
ENDCHAR
STARTCHAR 00BB
ENCODING 187
SWIDTH 432 0
DWIDTH 12 0
BBX 9 8 1 2
BITMAP
0800
C400
6600
3300
1180
2300
4600
8800
ENDCHAR
STARTCHAR 00BC
ENCODING 188
SWIDTH 828 0
DWIDTH 23 0
BBX 0 0 0 0
BITMAP
ENDCHAR
STARTCHAR 00BD
ENCODING 189
SWIDTH 972 0
DWIDTH 27 0
BBX 0 0 0 0
BITMAP
ENDCHAR
STARTCHAR 00BE
ENCODING 190
SWIDTH 828 0
DWIDTH 23 0
BBX 0 0 0 0
BITMAP
ENDCHAR
STARTCHAR 00BF
ENCODING 191
SWIDTH 360 0
DWIDTH 10 0
BBX 0 0 0 0
BITMAP
ENDCHAR
STARTCHAR 00C0
ENCODING 192
SWIDTH 756 0
DWIDTH 21 0
BBX 0 0 0 0
BITMAP
ENDCHAR
STARTCHAR 00C1
ENCODING 193
SWIDTH 756 0
DWIDTH 21 0
BBX 0 0 0 0
BITMAP
ENDCHAR
STARTCHAR 00C2
ENCODING 194
SWIDTH 756 0
DWIDTH 21 0
BBX 0 0 0 0
BITMAP
ENDCHAR
STARTCHAR 00C3
ENCODING 195
SWIDTH 756 0
DWIDTH 21 0
BBX 0 0 0 0
BITMAP
ENDCHAR
STARTCHAR 00C4
ENCODING 196
SWIDTH 756 0
DWIDTH 21 0
BBX 0 0 0 0
BITMAP
ENDCHAR
STARTCHAR 00C5
ENCODING 197
SWIDTH 756 0
DWIDTH 21 0
BBX 0 0 0 0
BITMAP
ENDCHAR
STARTCHAR 00C6
ENCODING 198
SWIDTH 1044 0
DWIDTH 29 0
BBX 0 0 0 0
BITMAP
ENDCHAR
STARTCHAR 00C7
ENCODING 199
SWIDTH 684 0
DWIDTH 19 0
BBX 0 0 0 0
BITMAP
ENDCHAR
STARTCHAR 00C8
ENCODING 200
SWIDTH 576 0
DWIDTH 16 0
BBX 0 0 0 0
BITMAP
ENDCHAR
STARTCHAR 00C9
ENCODING 201
SWIDTH 576 0
DWIDTH 16 0
BBX 0 0 0 0
BITMAP
ENDCHAR
STARTCHAR 00CA
ENCODING 202
SWIDTH 576 0
DWIDTH 16 0
BBX 0 0 0 0
BITMAP
ENDCHAR
STARTCHAR 00CB
ENCODING 203
SWIDTH 576 0
DWIDTH 16 0
BBX 0 0 0 0
BITMAP
ENDCHAR
STARTCHAR 00CC
ENCODING 204
SWIDTH 324 0
DWIDTH 9 0
BBX 0 0 0 0
BITMAP
ENDCHAR
STARTCHAR 00CD
ENCODING 205
SWIDTH 324 0
DWIDTH 9 0
BBX 0 0 0 0
BITMAP
ENDCHAR
STARTCHAR 00CE
ENCODING 206
SWIDTH 324 0
DWIDTH 9 0
BBX 0 0 0 0
BITMAP
ENDCHAR
STARTCHAR 00CF
ENCODING 207
SWIDTH 324 0
DWIDTH 9 0
BBX 0 0 0 0
BITMAP
ENDCHAR
STARTCHAR 00D0
ENCODING 208
SWIDTH 756 0
DWIDTH 21 0
BBX 0 0 0 0
BITMAP
ENDCHAR
STARTCHAR 00D1
ENCODING 209
SWIDTH 756 0
DWIDTH 21 0
BBX 0 0 0 0
BITMAP
ENDCHAR
STARTCHAR 00D2
ENCODING 210
SWIDTH 792 0
DWIDTH 22 0
BBX 0 0 0 0
BITMAP
ENDCHAR
STARTCHAR 00D3
ENCODING 211
SWIDTH 792 0
DWIDTH 22 0
BBX 0 0 0 0
BITMAP
ENDCHAR
STARTCHAR 00D4
ENCODING 212
SWIDTH 792 0
DWIDTH 22 0
BBX 0 0 0 0
BITMAP
ENDCHAR
STARTCHAR 00D5
ENCODING 213
SWIDTH 792 0
DWIDTH 22 0
BBX 0 0 0 0
BITMAP
ENDCHAR
STARTCHAR 00D6
ENCODING 214
SWIDTH 792 0
DWIDTH 22 0
BBX 0 0 0 0
BITMAP
ENDCHAR
STARTCHAR 00D7
ENCODING 215
SWIDTH 504 0
DWIDTH 14 0
BBX 10 10 2 5
BITMAP
4000
E180
7380
3F00
1E00
1E00
3F00
7380
E1C0
4080
ENDCHAR
STARTCHAR 00D8
ENCODING 216
SWIDTH 792 0
DWIDTH 22 0
BBX 0 0 0 0
BITMAP
ENDCHAR
STARTCHAR 00D9
ENCODING 217
SWIDTH 720 0
DWIDTH 20 0
BBX 0 0 0 0
BITMAP
ENDCHAR
STARTCHAR 00DA
ENCODING 218
SWIDTH 720 0
DWIDTH 20 0
BBX 0 0 0 0
BITMAP
ENDCHAR
STARTCHAR 00DB
ENCODING 219
SWIDTH 720 0
DWIDTH 20 0
BBX 0 0 0 0
BITMAP
ENDCHAR
STARTCHAR 00DC
ENCODING 220
SWIDTH 720 0
DWIDTH 20 0
BBX 0 0 0 0
BITMAP
ENDCHAR
STARTCHAR 00DD
ENCODING 221
SWIDTH 612 0
DWIDTH 17 0
BBX 0 0 0 0
BITMAP
ENDCHAR
STARTCHAR 00DE
ENCODING 222
SWIDTH 540 0
DWIDTH 15 0
BBX 0 0 0 0
BITMAP
ENDCHAR
STARTCHAR 00DF
ENCODING 223
SWIDTH 612 0
DWIDTH 17 0
BBX 0 0 0 0
BITMAP
ENDCHAR
STARTCHAR 00E0
ENCODING 224
SWIDTH 468 0
DWIDTH 13 0
BBX 0 0 0 0
BITMAP
ENDCHAR
STARTCHAR 00E1
ENCODING 225
SWIDTH 468 0
DWIDTH 13 0
BBX 0 0 0 0
BITMAP
ENDCHAR
STARTCHAR 00E2
ENCODING 226
SWIDTH 468 0
DWIDTH 13 0
BBX 0 0 0 0
BITMAP
ENDCHAR
STARTCHAR 00E3
ENCODING 227
SWIDTH 468 0
DWIDTH 13 0
BBX 0 0 0 0
BITMAP
ENDCHAR
STARTCHAR 00E4
ENCODING 228
SWIDTH 468 0
DWIDTH 13 0
BBX 0 0 0 0
BITMAP
ENDCHAR
STARTCHAR 00E5
ENCODING 229
SWIDTH 468 0
DWIDTH 13 0
BBX 0 0 0 0
BITMAP
ENDCHAR
STARTCHAR 00E6
ENCODING 230
SWIDTH 720 0
DWIDTH 20 0
BBX 0 0 0 0
BITMAP
ENDCHAR
STARTCHAR 00E7
ENCODING 231
SWIDTH 432 0
DWIDTH 12 0
BBX 0 0 0 0
BITMAP
ENDCHAR
STARTCHAR 00E8
ENCODING 232
SWIDTH 432 0
DWIDTH 12 0
BBX 0 0 0 0
BITMAP
ENDCHAR
STARTCHAR 00E9
ENCODING 233
SWIDTH 432 0
DWIDTH 12 0
BBX 0 0 0 0
BITMAP
ENDCHAR
STARTCHAR 00EA
ENCODING 234
SWIDTH 432 0
DWIDTH 12 0
BBX 0 0 0 0
BITMAP
ENDCHAR
STARTCHAR 00EB
ENCODING 235
SWIDTH 432 0
DWIDTH 12 0
BBX 0 0 0 0
BITMAP
ENDCHAR
STARTCHAR 00EC
ENCODING 236
SWIDTH 252 0
DWIDTH 7 0
BBX 0 0 0 0
BITMAP
ENDCHAR
STARTCHAR 00ED
ENCODING 237
SWIDTH 252 0
DWIDTH 7 0
BBX 0 0 0 0
BITMAP
ENDCHAR
STARTCHAR 00EE
ENCODING 238
SWIDTH 252 0
DWIDTH 7 0
BBX 0 0 0 0
BITMAP
ENDCHAR
STARTCHAR 00EF
ENCODING 239
SWIDTH 252 0
DWIDTH 7 0
BBX 0 0 0 0
BITMAP
ENDCHAR
STARTCHAR 00F0
ENCODING 240
SWIDTH 540 0
DWIDTH 15 0
BBX 0 0 0 0
BITMAP
ENDCHAR
STARTCHAR 00F1
ENCODING 241
SWIDTH 540 0
DWIDTH 15 0
BBX 0 0 0 0
BITMAP
ENDCHAR
STARTCHAR 00F2
ENCODING 242
SWIDTH 504 0
DWIDTH 14 0
BBX 0 0 0 0
BITMAP
ENDCHAR
STARTCHAR 00F3
ENCODING 243
SWIDTH 504 0
DWIDTH 14 0
BBX 0 0 0 0
BITMAP
ENDCHAR
STARTCHAR 00F4
ENCODING 244
SWIDTH 504 0
DWIDTH 14 0
BBX 0 0 0 0
BITMAP
ENDCHAR
STARTCHAR 00F5
ENCODING 245
SWIDTH 504 0
DWIDTH 14 0
BBX 0 0 0 0
BITMAP
ENDCHAR
STARTCHAR 00F6
ENCODING 246
SWIDTH 504 0
DWIDTH 14 0
BBX 0 0 0 0
BITMAP
ENDCHAR
STARTCHAR 00F7
ENCODING 247
SWIDTH 504 0
DWIDTH 14 0
BBX 11 13 1 3
BITMAP
0600
0E00
0600
0400
0000
FFE0
FFE0
0000
0000
0400
0600
0E00
0600
ENDCHAR
STARTCHAR 00F8
ENCODING 248
SWIDTH 504 0
DWIDTH 14 0
BBX 0 0 0 0
BITMAP
ENDCHAR
STARTCHAR 00F9
ENCODING 249
SWIDTH 504 0
DWIDTH 14 0
BBX 0 0 0 0
BITMAP
ENDCHAR
STARTCHAR 00FA
ENCODING 250
SWIDTH 504 0
DWIDTH 14 0
BBX 0 0 0 0
BITMAP
ENDCHAR
STARTCHAR 00FB
ENCODING 251
SWIDTH 504 0
DWIDTH 14 0
BBX 0 0 0 0
BITMAP
ENDCHAR
STARTCHAR 00FC
ENCODING 252
SWIDTH 504 0
DWIDTH 14 0
BBX 0 0 0 0
BITMAP
ENDCHAR
STARTCHAR 00FD
ENCODING 253
SWIDTH 432 0
DWIDTH 12 0
BBX 0 0 0 0
BITMAP
ENDCHAR
STARTCHAR 00FE
ENCODING 254
SWIDTH 504 0
DWIDTH 14 0
BBX 0 0 0 0
BITMAP
ENDCHAR
STARTCHAR 00FF
ENCODING 255
SWIDTH 432 0
DWIDTH 12 0
BBX 0 0 0 0
BITMAP
ENDCHAR
STARTCHAR 0131
ENCODING 305
SWIDTH 252 0
DWIDTH 7 0
BBX 6 13 0 0
BITMAP
10
30
F0
30
30
30
30
30
30
30
30
30
FC
ENDCHAR
STARTCHAR 02C6
ENCODING 710
SWIDTH 504 0
DWIDTH 14 0
BBX 8 5 3 15
BITMAP
18
3C
24
42
81
ENDCHAR
STARTCHAR 02C7
ENCODING 711
SWIDTH 504 0
DWIDTH 14 0
BBX 8 5 3 15
BITMAP
81
42
2C
3C
18
ENDCHAR
STARTCHAR 02C9
ENCODING 713
SWIDTH 468 0
DWIDTH 13 0
BBX 7 2 3 17
BITMAP
FE
FE
ENDCHAR
STARTCHAR 02D8
ENCODING 728
SWIDTH 504 0
DWIDTH 14 0
BBX 8 4 3 15
BITMAP
81
81
7E
3C
ENDCHAR
STARTCHAR 02D9
ENCODING 729
SWIDTH 504 0
DWIDTH 14 0
BBX 2 3 6 16
BITMAP
C0
C0
C0
ENDCHAR
STARTCHAR 02DA
ENCODING 730
SWIDTH 540 0
DWIDTH 15 0
BBX 5 5 5 15
BITMAP
70
88
88
88
70
ENDCHAR
STARTCHAR 02DB
ENCODING 731
SWIDTH 504 0
DWIDTH 14 0
BBX 5 6 5 -6
BITMAP
20
40
C0
C0
C8
70
ENDCHAR
STARTCHAR 02DC
ENCODING 732
SWIDTH 504 0
DWIDTH 14 0
BBX 8 4 3 15
BITMAP
01
7F
FE
80
ENDCHAR
STARTCHAR 02DD
ENCODING 733
SWIDTH 504 0
DWIDTH 14 0
BBX 8 5 3 15
BITMAP
33
33
66
44
88
ENDCHAR
STARTCHAR 037E
ENCODING 894
SWIDTH 288 0
DWIDTH 8 0
BBX 6 19 1 -5
BITMAP
30
78
7C
7C
78
00
00
00
00
38
7C
7C
7C
3C
1C
1C
38
F0
60
ENDCHAR
STARTCHAR 2013
ENCODING 8211
SWIDTH 540 0
DWIDTH 15 0
BBX 14 2 1 6
BITMAP
FFFC
FFFC
ENDCHAR
STARTCHAR 2014
ENCODING 8212
SWIDTH 1008 0
DWIDTH 28 0
BBX 28 2 0 6
BITMAP
FFFFFFF0
FFFFFFF0
ENDCHAR
STARTCHAR 2018
ENCODING 8216
SWIDTH 288 0
DWIDTH 8 0
BBX 4 7 3 14
BITMAP
20
40
C0
C0
C0
F0
60
ENDCHAR
STARTCHAR 2019
ENCODING 8217
SWIDTH 252 0
DWIDTH 7 0
BBX 3 7 2 14
BITMAP
C0
C0
E0
60
40
40
80
ENDCHAR
STARTCHAR 201A
ENCODING 8218
SWIDTH 252 0
DWIDTH 7 0
BBX 4 7 1 -3
BITMAP
60
F0
30
30
20
20
40
ENDCHAR
STARTCHAR 201C
ENCODING 8220
SWIDTH 468 0
DWIDTH 13 0
BBX 8 7 3 14
BITMAP
21
42
C6
C6
C6
F7
63
ENDCHAR
STARTCHAR 201D
ENCODING 8221
SWIDTH 432 0
DWIDTH 12 0
BBX 8 7 2 14
BITMAP
C6
CE
E7
63
42
42
84
ENDCHAR
STARTCHAR 201E
ENCODING 8222
SWIDTH 432 0
DWIDTH 12 0
BBX 9 7 1 -3
BITMAP
6300
F780
3380
3180
2100
2100
4200
ENDCHAR
STARTCHAR 2020
ENCODING 8224
SWIDTH 468 0
DWIDTH 13 0
BBX 11 23 1 -3
BITMAP
0F00
0E00
0600
4420
F4E0
FFE0
C460
0400
0E00
0F00
0E00
0E00
0E00
0600
0600
0400
0400
0400
0400
0400
0400
0400
0400
ENDCHAR
STARTCHAR 2021
ENCODING 8225
SWIDTH 468 0
DWIDTH 13 0
BBX 11 23 1 -3
BITMAP
0F00
0E00
0E00
0400
C460
FFE0
F4E0
4420
0400
0600
0E00
0F00
0E00
0600
0400
4420
F4E0
FFE0
C460
0600
0E00
0F00
0E00
ENDCHAR
STARTCHAR 2022
ENCODING 8226
SWIDTH 504 0
DWIDTH 14 0
BBX 8 8 3 6
BITMAP
3C
7E
FF
FF
FF
FF
7E
3C
ENDCHAR
STARTCHAR 2026
ENCODING 8230
SWIDTH 1008 0
DWIDTH 28 0
BBX 22 4 2 0
BITMAP
402000
E07018
E0703C
402018
ENDCHAR
STARTCHAR 2039
ENCODING 8249
SWIDTH 324 0
DWIDTH 9 0
BBX 5 8 2 2
BITMAP
08
10
30
60
C0
60
10
08
ENDCHAR
STARTCHAR 203A
ENCODING 8250
SWIDTH 324 0
DWIDTH 9 0
BBX 5 8 1 2
BITMAP
80
40
60
30
18
30
40
80
ENDCHAR
STARTCHAR 2044
ENCODING 8260
SWIDTH 180 0
DWIDTH 5 0
BBX 13 20 -4 0
BITMAP
0008
0010
0030
0020
0040
0040
0080
0180
0100
0200
0600
0400
0800
1800
1000
2000
2000
4000
C000
8000
ENDCHAR
STARTCHAR 20A3
ENCODING 8355
SWIDTH 468 0
DWIDTH 13 0
BBX 14 20 0 0
BITMAP
FFF8
3C08
1804
1800
1800
1800
1800
1810
1810
1FF0
1810
1810
1800
1800
FF00
1800
1800
1800
1C00
FF00
ENDCHAR
STARTCHAR 20A4
ENCODING 8356
SWIDTH 504 0
DWIDTH 14 0
BBX 11 20 1 0
BITMAP
0FE0
1860
3020
7000
6000
6000
6000
6000
6000
FF80
3000
FF80
1800
1800
1800
1800
3000
3020
6060
FFE0
ENDCHAR
STARTCHAR 20A7
ENCODING 8359
SWIDTH 972 0
DWIDTH 27 0
BBX 26 20 0 0
BITMAP
FFE00000
38300000
18184000
18184000
180C4000
180CC000
180FFFC0
180CD8C0
180CD040
1818D000
1C18D800
1A30DE00
19E0CF00
1800C380
1800C0C0
1800C040
1800E040
1800E040
3C00F080
FF007F00
ENDCHAR
STARTCHAR 20AC
ENCODING 8364
SWIDTH 504 0
DWIDTH 14 0
BBX 15 21 0 0
BITMAP
01E8
0618
0C08
1804
1000
3000
2000
6000
6000
FFF0
6000
FFF0
6000
6000
3000
3000
1002
1802
0C06
060C
01F8
ENDCHAR
STARTCHAR 2116
ENCODING 8470
SWIDTH 1116 0
DWIDTH 31 0
BBX 0 0 0 0
BITMAP
ENDCHAR
STARTCHAR 2122
ENCODING 8482
SWIDTH 720 0
DWIDTH 20 0
BBX 0 0 0 0
BITMAP
ENDCHAR
STARTCHAR 2202
ENCODING 8706
SWIDTH 504 0
DWIDTH 14 0
BBX 12 21 1 -1
BITMAP
3800
0600
0300
0180
00C0
0040
0660
19A0
20E0
6070
4070
C070
C030
C030
C030
E030
6020
6060
3040
1880
0700
ENDCHAR
STARTCHAR 2206
ENCODING 8710
SWIDTH 540 0
DWIDTH 15 0
BBX 14 19 0 0
BITMAP
0100
0100
0300
0380
0480
04C0
04C0
0840
0860
1020
1020
1030
2010
2018
4018
4008
400C
7FFC
FFFC
ENDCHAR
STARTCHAR 220F
ENCODING 8719
SWIDTH 756 0
DWIDTH 21 0
BBX 19 26 1 -6
BITMAP
FFFFE0
380780
380300
380300
380300
380300
380300
380300
380300
380300
380300
380300
380300
380300
380300
380300
380300
380300
380300
380300
380300
380300
380300
380300
380780
FE1FE0
ENDCHAR
STARTCHAR 2211
ENCODING 8721
SWIDTH 576 0
DWIDTH 16 0
BBX 14 26 2 -6
BITMAP
FFF0
7008
3808
3C04
1C00
0E00
0700
0780
0380
01C0
00E0
00F0
0070
0020
0060
00C0
0080
0100
0200
0400
0C00
1800
1004
2008
4008
FFF0
ENDCHAR
STARTCHAR 2212
ENCODING 8722
SWIDTH 504 0
DWIDTH 14 0
BBX 11 2 1 9
BITMAP
FFE0
FFE0
ENDCHAR
STARTCHAR 2215
ENCODING 8725
SWIDTH 180 0
DWIDTH 5 0
BBX 13 20 -4 0
BITMAP
0008
0010
0030
0020
0040
0040
0080
0180
0100
0200
0600
0400
0800
1800
1000
2000
2000
4000
C000
8000
ENDCHAR
STARTCHAR 2219
ENCODING 8729
SWIDTH 252 0
DWIDTH 7 0
BBX 3 4 2 8
BITMAP
40
E0
E0
40
ENDCHAR
STARTCHAR 221A
ENCODING 8730
SWIDTH 504 0
DWIDTH 14 0
BBX 14 23 0 0
BITMAP
000C
0008
0018
0010
0030
0020
0060
0040
00C0
0080
0180
0100
0300
0200
0600
0400
0C00
0800
D800
5000
7000
2000
2000
ENDCHAR
STARTCHAR 221E
ENCODING 8734
SWIDTH 504 0
DWIDTH 14 0
BBX 13 10 0 5
BITMAP
00C0
39F0
7B10
4608
8408
8408
8408
4E10
39F0
00E0
ENDCHAR
STARTCHAR 222B
ENCODING 8747
SWIDTH 324 0
DWIDTH 9 0
BBX 11 27 -1 -4
BITMAP
00E0
0120
0100
0200
0200
0200
0600
0600
0600
0600
0600
0600
0400
0400
0C00
0C00
0C00
0C00
0C00
0C00
0C00
0800
0800
1000
9000
E000
C000
ENDCHAR
STARTCHAR 2248
ENCODING 8776
SWIDTH 504 0
DWIDTH 14 0
BBX 12 8 1 5
BITMAP
0010
7C30
FFE0
81C0
0000
3C30
FFE0
83C0
ENDCHAR
STARTCHAR 2264
ENCODING 8804
SWIDTH 504 0
DWIDTH 14 0
BBX 11 16 1 1
BITMAP
0060
01E0
03C0
0F00
3C00
F000
E000
7800
1E00
0780
03C0
00E0
0020
0000
FFE0
FFE0
ENDCHAR
STARTCHAR 2265
ENCODING 8805
SWIDTH 504 0
DWIDTH 14 0
BBX 11 17 1 0
BITMAP
8000
C000
F000
3C00
0E00
0780
01E0
00E0
03C0
0780
1E00
7800
E000
C000
0000
FFE0
FFE0
ENDCHAR
STARTCHAR F001
ENCODING 61441
SWIDTH 540 0
DWIDTH 15 0
BBX 0 0 0 0
BITMAP
ENDCHAR
STARTCHAR F002
ENCODING 61442
SWIDTH 540 0
DWIDTH 15 0
BBX 0 0 0 0
BITMAP
ENDCHAR
STARTCHAR FB01
ENCODING 64257
SWIDTH 540 0
DWIDTH 15 0
BBX 0 0 0 0
BITMAP
ENDCHAR
STARTCHAR FB02
ENCODING 64258
SWIDTH 540 0
DWIDTH 15 0
BBX 0 0 0 0
BITMAP
ENDCHAR
ENDFONT
